<svg width="102" height="195" version="1.1" viewBox="0 0 265 720" xmlns="http://www.w3.org/2000/svg">
 <defs>
  <style>.cls-1{fill:#002d74;}.cls-2{fill:#fff;}.cls-3{fill:#0f9bd7;}.cls-4{fill:#00a0df;}.cls-5{fill:#4dbde9;}.cls-6{fill:#a6def4;}.cls-7{fill:#80d0ef;}</style>
 </defs>
 <g transform="matrix(2.2341 0 0 2.2341 -8.3807 -54.475)">
  <path class="cls-1" d="m125.5 24.383h-121.75v90.39c0 35.2 20.59 60.32 59.55 72.65l1.3 0.4 1.35-0.4c39-12.32 59.55-37.44 59.55-72.65zm-60.65 159.53-0.25 0.06-0.19-0.06c-37.29-11.79-57-35.71-56.92-69.14v-86.72h114.34v86.72c0.01 33.44-19.69 57.35-56.98 69.14z"/>
  <path class="cls-2" d="m7.4913 28.053v86.72c-0.06 33.43 19.63 57.35 56.92 69.14l0.19 0.06 0.25-0.06c37.29-11.79 57-35.7 57-69.14v-86.72zm110.66 85.66c0 32.05-18.11 54.91-52.39 66.13l-1.16 0.41-1.17-0.41c-34.27-11.22-52.38-34.09-52.38-66.13v-82h107.1z"/>
  <polygon class="cls-3" transform="translate(3.7513 24.383)" points="89.81 81.77 89.8 81.77 89.81 81.78"/>
  <path class="cls-3" d="m51.851 81.933"/>
  <path class="cls-3" d="m41.041 166.78"/>
  <path class="cls-4" d="m93.551 106.15a90.41 90.41 0 0 0-41.7-24.2l5.95 44.75z"/>
  <path class="cls-5" d="m32.651 141.16 25.15-14.46-5.95-44.75-25.1 41.27z"/>
  <path class="cls-4" d="m51.841 81.953a86.75 86.75 0 0 0-10.08-2 81.14 81.14 0 0 0-28.75 1.24l13.74 42.03z"/>
  <polygon class="cls-5" transform="translate(3.7513 24.383)" points="89.81 81.78 89.8 81.77 54.05 102.32 58.15 133.2 75.38 125.61"/>
  <path class="cls-4" d="m112.9 135.1a92.25 92.25 0 0 0-19.34-28.94l-14.43 43.83z"/>
  <path class="cls-6" d="m41.061 166.78a94.74 94.74 0 0 0 23.34 11.08l0.21 0.06-2.71-20.34z"/>
  <path class="cls-7" d="m61.901 157.58 2.71 20.34 0.19-0.06c2-0.66 4-1.36 5.84-2.09l8.49-25.78z"/>
  <path class="cls-5" d="m112.9 135.1-33.77 14.89-8.49 25.78c21.9-8.51 36.21-22.33 42.26-40.67z"/>
  <path class="cls-7" d="m26.751 123.22-9.23 15.21a58.67 58.67 0 0 0 4.42 8.87l10.69-6.14z"/>
  <path class="cls-7" d="m57.801 126.7-25.15 14.46 8.39 25.6 20.84-9.2z"/>
  <path class="cls-5" d="m13.011 81.203v32.18a67.14 67.14 0 0 0 4.53 25l9.21-15.16z"/>
  <path class="cls-6" d="m21.961 147.3a63.2 63.2 0 0 0 19.08 19.46l-8.39-25.6z"/>
  <path class="cls-4" d="m93.551 106.15a90.41 90.41 0 0 0-41.7-24.2l5.95 44.75z"/>
  <path class="cls-5" d="m32.651 141.16 25.15-14.46-5.95-44.75-25.1 41.27z"/>
  <path class="cls-4" d="m51.841 81.953a86.75 86.75 0 0 0-10.08-2 81.14 81.14 0 0 0-28.75 1.24l13.74 42.03z"/>
  <polygon class="cls-5" transform="translate(3.7513 24.383)" points="89.81 81.78 89.8 81.77 54.05 102.32 58.15 133.2 75.38 125.61"/>
  <path class="cls-4" d="m112.9 135.1a92.25 92.25 0 0 0-19.34-28.94l-14.43 43.83z"/>
  <path class="cls-6" d="m41.061 166.78a94.74 94.74 0 0 0 23.34 11.08l0.21 0.06-2.71-20.34z"/>
  <path class="cls-7" d="m61.901 157.58 2.71 20.34 0.19-0.06c2-0.66 4-1.36 5.84-2.09l8.49-25.78z"/>
  <path class="cls-5" d="m112.9 135.1-33.77 14.89-8.49 25.78c21.9-8.51 36.21-22.33 42.26-40.67z"/>
  <path class="cls-7" d="m26.751 123.22-9.23 15.21a58.67 58.67 0 0 0 4.42 8.87l10.69-6.14z"/>
  <path class="cls-7" d="m57.801 126.7-25.15 14.46 8.39 25.6 20.84-9.2z"/>
  <path class="cls-5" d="m13.011 81.203v32.18a67.14 67.14 0 0 0 4.53 25l9.21-15.16z"/>
  <path class="cls-6" d="m21.961 147.3a63.2 63.2 0 0 0 19.08 19.46l-8.39-25.6z"/>
  <path class="cls-1" d="m11.051 31.723v82c0 32 18.11 54.91 52.38 66.13l1.17 0.41 1.16-0.41c34.28-11.22 52.39-34.08 52.39-66.13v-82zm53.75 146.14-0.19 0.06-0.21-0.06c-33.65-10.99-51.39-33.28-51.39-64.48v-32.19a81.14 81.14 0 0 1 28.74-1.22c32.24 4.32 59.1 26.47 71.14 55.12-6.56 19.93-22.86 34.52-48.09 42.77z"/>
  <path class="cls-2" d="m74.941 40.803c0 0.51 0.37 0.64 0.94 0.79 2 0.47 2.25 1.22 2.25 2.83v17.55c0 1.6-0.21 2.36-2.25 2.83-0.57 0.15-0.93 0.27-0.94 0.78v0.88h10v-0.88c0-0.51-0.38-0.63-0.94-0.78-2.05-0.42-2.25-1.23-2.25-2.83v-17.59c0-1.61 0.21-2.36 2.25-2.83 0.56-0.15 0.93-0.27 0.94-0.79v-0.87h-10z"/>
  <path class="cls-2" d="m24.531 45.383v16.57c0 1.61 0.18 2.36 2.08 2.83 0.53 0.14 0.86 0.27 0.87 0.8v0.86h-8.22v-0.86c0-0.53 0.35-0.66 0.88-0.8 1.89-0.47 2.08-1.22 2.08-2.83v-17.57c0-1.61-0.19-2.36-2.08-2.84-0.53-0.14-0.87-0.27-0.88-0.78v-0.87h5a1.73 1.73 0 0 1 1.66 0.93l14.69 18.2v-14.64c0-1.61-0.18-2.36-2.07-2.84-0.54-0.14-0.88-0.27-0.88-0.78v-0.87h8.26v0.87c0 0.51-0.35 0.64-0.88 0.78-1.89 0.48-2.08 1.23-2.08 2.84v22h-0.45c-0.69 0-1.08-0.52-1.6-1.2z"/>
  <path class="cls-2" d="m71.921 64.803c-1.26-0.27-1.91-1.24-2.63-2.78 0 0-9-22.56-9-22.6l-1 0.07c-0.42 0.06-0.85 0.09-1.44 1.26l-8.42 21.28a5 5 0 0 1-3.35 2.77c-0.58 0.1-0.95 0.26-0.95 0.78v0.86h9.71v-0.86c0-0.52-0.65-0.59-1.2-0.78-2-0.72-1.79-1.77-1.45-2.84l1.86-4.5h9.42c0.06 0.15 1.94 4.52 1.94 4.52 0.34 1.06 1.06 2.1-1 2.82-0.55 0.19-1.2 0.26-1.2 0.78v0.86h9.67v-0.86c-0.01-0.52-0.38-0.68-0.96-0.78zm-17.12-9.42c0.19-0.48 4.1-9.66 4.11-9.66s3.54 9.16 3.75 9.66z"/>
  <path class="cls-2" d="m87.121 39.933v6.32h0.72c0.48 0 0.64-0.35 0.82-0.94 0.6-2.11 1.5-2.71 3-2.68h4.86v19.32c0 1.61-0.58 2.36-2.61 2.83-0.57 0.14-0.93 0.27-0.94 0.8v0.86h10.91v-0.86c0-0.53-0.38-0.66-0.94-0.8-2-0.47-2.61-1.22-2.61-2.83v-19.32h4.85c1.51 0 2.4 0.57 3 2.68 0.18 0.59 0.33 0.93 0.83 0.94h0.77v-6.32z"/>
 </g>
</svg>
